<?xml version="1.0" standalone="no"?><!DOCTYPE svg PUBLIC "-//W3C//DTD SVG 1.1//EN" "http://www.w3.org/Graphics/SVG/1.1/DTD/svg11.dtd"><svg t="1575448742815" class="icon" viewBox="0 0 1024 1024" version="1.1" xmlns="http://www.w3.org/2000/svg" p-id="1136" xmlns:xlink="http://www.w3.org/1999/xlink" width="200" height="200"><defs><style type="text/css"></style></defs><path d="M365.668 883.824l203.643 0.068c20.495 0.007 37.114-16.601 37.119-37.096s-16.601-37.114-37.096-37.119l-203.643-0.068c-20.495-0.007-37.114 16.601-37.119 37.096-0.007 20.494 16.601 37.113 37.096 37.119zM734.369 883.77h109.047c61.8 0 111.869-49.559 111.869-111.308v-222.675c0-52.751-31.916-116.692-74.205-148.408l-178.139-133.605c-23.526-17.644-44.518-59.563-44.518-89.051 0-61.729-49.357-111.323-111.541-111.323h-370.642c-61.341 0-111.541 50.169-111.541 110.982v594.407c0 61.458 49.604 110.982 111.401 110.982h29.453c20.495 0 37.107-16.614 37.107-37.107s-16.614-37.107-37.107-37.107h-29.453c-20.836 0-37.186-16.323-37.186-36.766v-594.408c0-19.814 16.962-36.766 37.326-36.766h370.642c21.115 0 37.326 16.287 37.326 37.107 0 52.864 32.002 116.771 74.204 148.422l178.139 133.605c23.585 17.688 44.518 59.626 44.518 89.036v222.675c0 20.591-16.673 37.094-37.653 37.094h-109.046c-20.495 0-37.107 16.614-37.107 37.107s16.613 37.107 37.107 37.107z" p-id="1137" fill="#F0576A"></path><path d="M658.423 883.77c-20.495 0-37.107-16.614-37.107-37.107s16.614-37.107 37.107-37.107c20.495 0 37.107 16.614 37.107 37.107s-16.613 37.107-37.107 37.107zM658.423 957.986c61.482 0 111.323-49.841 111.323-111.323s-49.841-111.323-111.323-111.323-111.323 49.841-111.323 111.323 49.841 111.323 111.323 111.323zM287.345 883.77c-20.495 0-37.107-16.614-37.107-37.107s16.614-37.107 37.107-37.107 37.107 16.614 37.107 37.107-16.613 37.107-37.107 37.107zM287.345 957.986c61.482 0 111.323-49.841 111.323-111.323s-49.841-111.323-111.323-111.323-111.323 49.841-111.323 111.323 49.841 111.323 111.323 111.323zM390.219 495.996l17.68-17.68c14.441-14.442 14.801-38.297 0.31-52.789-14.068-14.067-38.126-14.352-52.788 0.31l-78.097 78.097c-8.056 8.056-11.73 19.040-10.889 29.693-0.537 10.258 3.028 20.797 10.877 28.644l78.097 78.097c14.441 14.441 38.297 14.801 52.788 0.31 14.068-14.068 14.352-38.126-0.31-52.789l-17.68-17.68h305.993c19.527 0 36.441-16.614 36.441-37.107 0-19.895-16.315-37.107-36.441-37.107h-305.98z" p-id="1138" fill="#F0576A"></path></svg>